<svg width="21" height="20" viewBox="0 0 21 20" fill="none" xmlns="http://www.w3.org/2000/svg">
<path d="M12.2284 3.23783C12.8494 2.56503 13.1599 2.22863 13.4898 2.0324C14.2859 1.55893 15.2662 1.5442 16.0757 1.99356C16.4111 2.17979 16.7311 2.50673 17.3712 3.16059C18.0112 3.81446 18.3313 4.14139 18.5136 4.48407C18.9535 5.31089 18.9391 6.31228 18.4756 7.12554C18.2835 7.46259 17.9542 7.77978 17.2956 8.41413L9.45916 15.9619C8.21106 17.164 7.58699 17.7651 6.80704 18.0697C6.02709 18.3744 5.16966 18.352 3.45479 18.3071L3.22148 18.301C2.69942 18.2874 2.43838 18.2805 2.28665 18.1083C2.13491 17.9361 2.15563 17.6702 2.19706 17.1385L2.21956 16.8497C2.33617 15.3529 2.39447 14.6045 2.68675 13.9318C2.97903 13.259 3.48319 12.7129 4.49152 11.6204L12.2284 3.23783Z" stroke="white" stroke-width="1.25" stroke-linejoin="round"/>
<path d="M11.333 3.33337L17.1663 9.16671" stroke="white" stroke-width="1.25" stroke-linejoin="round"/>
<path d="M12.167 18.3334H18.8337" stroke="white" stroke-width="1.25" stroke-linecap="round" stroke-linejoin="round"/>
</svg>
